<svg width="87" height="16" viewBox="0 0 87 16" fill="none" xmlns="http://www.w3.org/2000/svg">
<path d="M12.2708 0H10.1141V1.61366C11.299 1.61366 12.2658 2.56899 12.2708 3.76191V5.76166C12.2708 6.03885 12.0427 6.26654 11.7601 6.26654H5.32477C5.04217 6.26654 4.81907 6.03885 4.81907 5.76166V3.76191C4.81907 2.57394 5.78586 1.61366 6.97079 1.61366V0H0V1.61366C1.18494 1.61366 2.15172 2.56899 2.15668 3.76191V11.3699C2.15668 12.5628 1.18494 13.5181 0 13.5231V15.1318H2.15668L4.81907 15.1367H6.97079V13.5231C5.7809 13.5231 4.81907 12.5628 4.81907 11.3699V9.37012C4.81907 9.08797 5.04217 8.86523 5.32477 8.86523H11.7601C12.0378 8.86523 12.2708 9.09292 12.2708 9.37012V11.3699C12.2708 12.5628 11.304 13.5181 10.1141 13.5231V15.1367H17.0898V13.5231C15.8999 13.5231 14.9381 12.5628 14.9381 11.3699V3.76191C14.9381 2.57394 15.9049 1.61366 17.0898 1.61366V0H12.2708Z" fill="#E42313"/>
<path d="M44.9756 2.43924C47.1609 2.43924 48.8864 3.7306 49.6577 5.57117H51.2695V0.247388H49.6577C49.6577 0.618469 49.3561 0.920282 48.9853 0.920282C48.9112 0.920282 48.832 0.905439 48.7628 0.875752V0.885648C47.6702 0.321604 46.4094 0 45.0201 0C40.3824 0 37.1094 3.56238 37.1094 7.8125V7.85703C37.1094 12.1071 40.3429 15.625 44.9805 15.625C45.1239 15.625 45.2722 15.6201 45.4156 15.6102C45.5194 15.6052 45.6183 15.6003 45.7123 15.5854C45.7469 15.5854 45.7765 15.5854 45.8111 15.5805C48.0459 15.3578 49.9643 14.2297 51.225 12.5623L49.5242 10.8603C48.481 12.2457 46.8445 13.1858 45.1288 13.1858C45.0893 13.1858 45.0547 13.1858 45.0201 13.1858C42.019 13.1858 39.888 10.7515 39.888 7.8125V7.76797C39.888 4.83395 41.9794 2.43924 44.9756 2.43924Z" fill="#E42313"/>
<path d="M32.4072 7.60796C32.4072 10.568 30.3613 12.7113 27.2266 12.7113H24.2822V2.42049H27.2266C30.3613 2.42049 32.4072 4.60833 32.4072 7.56341V7.61291V7.60796ZM27.2217 0H21.6553H19.5312V1.61366C20.7031 1.61366 21.6553 2.56899 21.6553 3.76191V11.3699C21.6553 12.5628 20.7031 13.5181 19.5312 13.5181V15.1367H21.6553L27.2217 15.1318C31.9141 15.1318 35.1562 11.8302 35.1562 7.56341V7.52381C35.1562 3.26197 31.9141 0 27.2217 0Z" fill="#E42313"/>
<path d="M65.4154 7.8125C65.239 7.84652 65.0426 7.88054 64.8159 7.92428C64.5891 7.96803 64.3473 7.99233 64.0954 8.01663C63.8486 8.04093 63.6068 8.06037 63.365 8.07495C63.1231 8.08953 62.9065 8.09925 62.7201 8.09925H58.1559V3.69597H61.9544V2.19905H58.1055V0.706987H63.7831V5.12485H59.9695V6.62177H62.9116C63.2491 6.62177 63.6571 6.61205 64.1408 6.58775C64.6244 6.56345 65.0476 6.51971 65.4204 6.45166V0.488281H67.1786V3.5453H69.0224V0.488281H70.8008V8.386H69.0224V5.02765H67.1786V8.386H65.4204V7.8125H65.4154ZM60.2264 9.05669H62.1408V10.5536H68.7756V9.05669H70.7252V15.1367H60.2214V9.05669H60.2264ZM62.1408 13.6447H68.7756V12.0505H62.1408V13.6447Z" fill="#535657"/>
<path d="M72.7539 12.1505H86.4258V13.6719H72.7539V12.1505ZM78.5973 0.488281H80.5621V2.09363C80.5621 2.80986 80.7144 3.48657 81.019 4.12377C81.3236 4.76097 81.7399 5.33396 82.2628 5.84767C82.7756 6.37126 83.3746 6.82569 84.0549 7.21592C84.7352 7.6012 85.451 7.89757 86.2126 8.10503L85.0906 9.3004C84.588 9.14233 84.0701 8.92005 83.5472 8.64344C83.0243 8.36683 82.5166 8.03588 82.0394 7.66047C81.547 7.29495 81.0951 6.88991 80.6788 6.45029C80.2625 6.00573 79.9224 5.5266 79.6533 5.01783C79.3741 5.54142 79.0238 6.03043 78.6075 6.47993C78.1912 6.92942 77.7444 7.32953 77.2672 7.68517C76.7747 8.06058 76.262 8.38658 75.7238 8.65826C75.1857 8.92993 74.6476 9.15221 74.1094 9.32509L72.9874 8.12973C73.7388 7.92227 74.4496 7.63084 75.1299 7.24061C75.8102 6.85533 76.4092 6.39102 76.9372 5.85755C77.4398 5.34384 77.846 4.76591 78.1506 4.12377C78.4552 3.48163 78.6075 2.80492 78.6075 2.09857V0.488281H78.5973Z" fill="#535657"/>
</svg>
